<!DOCTYPE svg PUBLIC "-//W3C//DTD SVG 1.1//EN" "http://www.w3.org/Graphics/SVG/1.1/DTD/svg11.dtd">
<!-- Uploaded to: SVG Repo, www.svgrepo.com, Transformed by: SVG Repo Mixer Tools -->
<svg width="192px" height="192px" viewBox="-6.4 -6.4 76.80 76.80" xmlns="http://www.w3.org/2000/svg" xmlns:xlink="http://www.w3.org/1999/xlink" aria-hidden="true" role="img" class="iconify iconify--emojione-monotone" preserveAspectRatio="xMidYMid meet" fill="#ecd909" stroke="#ecd909" stroke-width="3.968" transform="matrix(1, 0, 0, 1, 0, 0)rotate(0)">
<g id="SVGRepo_bgCarrier" stroke-width="0"/>
<g id="SVGRepo_tracerCarrier" stroke-linecap="round" stroke-linejoin="round" stroke="#210d0d" stroke-width="7.936">
<path d="M32 2C15.432 2 2 15.432 2 32s13.432 30 30 30s30-13.432 30-30S48.568 2 32 2zm3.198 33.627v10.881h-6.063V35.627L19.096 17.492h7.146l6.023 12.637l5.769-12.637h6.87l-9.706 18.135z" fill="#082d77"/>
</g>
<g id="SVGRepo_iconCarrier">
<path d="M32 2C15.432 2 2 15.432 2 32s13.432 30 30 30s30-13.432 30-30S48.568 2 32 2zm3.198 33.627v10.881h-6.063V35.627L19.096 17.492h7.146l6.023 12.637l5.769-12.637h6.87l-9.706 18.135z" fill="#082d77"/>
</g>
</svg>